<svg version="1.1" id="Capa_1" xmlns="http://www.w3.org/2000/svg" xmlns:xlink="http://www.w3.org/1999/xlink" x="0px" y="0px" viewBox="0 0 512 512" style="enable-background:new 0 0 512 512;" xml:space="preserve"><g><g><g><path d="M450.794,248.528c0.04-0.023,0.071-0.041,0.093-0.054C450.862,248.488,450.832,248.506,450.794,248.528z"></path><path d="M450.06,248.951c0.022-0.013,0.043-0.025,0.065-0.038C450.104,248.926,450.083,248.938,450.06,248.951z"></path><path d="M450.789,248.531c0.002-0.001,0.003-0.002,0.005-0.003C450.792,248.529,450.79,248.53,450.789,248.531z"></path><path d="M450.918,248.456C450.945,248.441,450.943,248.442,450.918,248.456L450.918,248.456z"></path><path d="M450.126,248.914c0.324-0.187,0.538-0.31,0.663-0.383C450.633,248.621,450.38,248.767,450.126,248.914z"></path><path d="M450.887,248.474c0.013-0.007,0.023-0.013,0.031-0.018C450.91,248.461,450.899,248.467,450.887,248.474z"></path><path d="M115.885,337.287c-0.004,0.006-0.009,0.013-0.013,0.018C115.877,337.299,115.88,337.293,115.885,337.287z"></path><path d="M116.238,336.809c-0.17,0.231-0.285,0.387-0.352,0.478C116.136,336.946,116.822,336.016,116.238,336.809z"></path><path d="M449.421,249.321c0.248-0.143,0.46-0.266,0.64-0.369c-0.364,0.21-0.712,0.411-0.755,0.436 c0.007-0.004,0.014-0.008,0.022-0.012C449.346,249.364,449.377,249.346,449.421,249.321z"></path><path d="M115.872,337.305C115.766,337.448,115.79,337.416,115.872,337.305L115.872,337.305z"></path><path d="M504.907,170.202c-37.329-64.656-47.696-88.966-91.824-127.226c-7.188-6.179-17.101-7.827-26.01-4.168 c-12.283,5.045-14.181,15.279-16.037,21.388c-2.85,9.377-8.139,22.495-13.925,30.472c-8.626,11.885-21.93,19.857-36.767,21.733 c-13.049,1.646-21.205-1.118-43.555-8.889L259.7,90.554c-12.773-9.684-29.045-13.123-44.648-9.438 c-14.573,3.444-28.178,13.169-35.697,28.423L85.156,300.649c-18.202,18.712-33.811,36.189-46.398,51.952 c-3.963,4.964-0.328,12.186,5.859,12.186c7.258,0,3.319-4.143,49.774-52.109c9.297,0.266,13.738,1.085,20.959,0.049 l-12.495,16.943c-12.844,17.417-14.495,40.102-4.311,59.202c6.256,11.733,16.128,20.499,27.823,25.296 c-41.356,17.557-78.644,20.79-111.423,9.574c0.583-4.719,3.389-15.227,15.41-34.025c2.233-3.491,1.213-8.132-2.278-10.364 c-3.489-2.231-8.13-1.213-10.364,2.278C9.157,395.009-3.896,417.886,1.11,432.967c27.094,81.798,180.355,28.146,249.563-23.12 c67.391-49.928,117.646-118.144,122.777-121.39c2.921-1.855,6.721-2.278,10.101-0.834c10.63,4.54,22.957,3.804,32.971-1.979 l41.935-24.212c3.589-2.072,4.818-6.661,2.746-10.25s-6.663-4.816-10.25-2.746c-0.877,0.506-1.337,0.772-1.533,0.885 c-0.032,0.019-0.06,0.035-0.094,0.054c-0.024,0.014-0.031,0.018-0.022,0.012c-3.358,1.939-12.845,7.417-36.853,21.278 c-7.477,4.314-15.902,5.272-25.403,2.286c-8.616-2.711-18.165-0.665-24.945,5.33c-4.528,4.01-33.537,42.399-78.294,84.156 c-20.332,18.847-46.085,40.011-69.52,53.542c-34.675,20.02-68.777,32.509-98.371,38.713 c-29.721,6.23-73.959,10.132-93.364-13.153c26.177,6.173,54.778,4.6,85.283-4.719c26.296-8.035,47.754-20.05,46.669-19.484 c111.22-58.058,171.589-153.688,200.066-172.185l128.207-83.264l9.133,15.82c10.532,18.243,3.884,39.62-11.796,52.934 c-3.159,2.682-3.546,7.417-0.862,10.576c2.682,3.159,7.417,3.547,10.576,0.862c7.951-6.75,14.244-15.4,18.202-25.015 c0.003-0.006,0.006-0.012,0.006-0.012C514.268,201.898,513.097,184.386,504.907,170.202z M393.67,52.357 c6.614-2.043,10.348,2.445,16.753,8.232c9.037,8.167,17.492,17.011,25.239,26.423c-23.463,8.861-48.004,6.499-61.198,4.114 C389.282,63.295,384.03,55.34,393.67,52.357z M194.275,113.519l14.568,7.459c3.72,1.905,8.226,0.399,10.099-3.26 c1.889-3.69,0.429-8.21-3.26-10.099l-10.932-5.597c4.067-2.949,8.721-5.111,13.755-6.3c23.816-5.625,37.333,12.09,44.325,16.038 l-32.611,44.476l-45.163-24.311C192.805,116.31,192.706,116.162,194.275,113.519z M178.415,145.393l34.233,18.427l-45.755,4.949 L178.415,145.393z M213.67,178.804l-12.026,16.401l-22.926-12.62L213.67,178.804z M157.419,187.991l27.917,15.367l-38.936,6.987 L157.419,187.991z M184.357,218.782l-11.369,15.505l-18.079-10.22L184.357,218.782z M136.32,230.797l21.564,12.191l-31.888,8.752 L136.32,230.797z M154.52,259.473l-9.869,13.459l-12.995-7.184L154.52,259.473z M103.167,298.055l11.972-24.288l20.519,11.342 C122.836,300.94,103.987,297.92,103.167,298.055z M346.399,232.564c-20.971,13.62-22.225,22.249-61.41,62.899 c-12.022-2.218-22.242-9.965-27.617-21.055c-5.697-11.754-5.075-25.451,1.663-36.641l25.94-43.074 c2.138-3.551,0.994-8.161-2.557-10.299c-3.552-2.14-8.162-0.995-10.299,2.557l-25.94,43.074 c-17.344,28.802-4.087,65.906,26.836,77.602c-36.079,35.893-79.577,72.106-124.024,95.653 c-33.727,1.2-54.387-37.133-34.057-64.703c0.68-0.923,1.082-1.467,1.304-1.768c1.618-2.194,8.508-11.538,32.708-44.356 c9.628,5.032,10.839,6.718,14.082,6.718c7.735,0,10.397-10.335,3.637-14.072l-8.771-4.848l19.313-26.339 c11.647,6.26,12.477,7.82,15.799,7.82c7.706,0,10.381-10.259,3.7-14.037l-10.561-5.971l19.809-27.014 c12.797,6.728,13.475,8.158,16.74,8.158c7.753,0,10.384-10.358,3.626-14.078l-11.417-6.285l19.7-26.865 c13.681,7.059,14.439,8.497,17.667,8.497c7.774,0,10.408-10.428,3.564-14.112l-12.27-6.605l32.507-44.333 c11.073,3.19,18.62,7.4,31.789,8.516l-17.641,29.294c-2.138,3.551-0.992,8.161,2.557,10.299s8.161,0.992,10.299-2.557 l22.814-37.886c15.088-2.724,29.028-10.434,39.346-22.184c25.41,6.021,55.13,5.477,79.941-5.229 c11.391,15.772,15.947,25.526,30.09,49.531L346.399,232.564z"></path></g></g></g></svg>